<svg width="24" height="24" viewBox="0 0 24 24" fill="none" xmlns="http://www.w3.org/2000/svg">
<rect width="24" height="24" rx="6" fill="#749395"/>
<path d="M9 6C12.3137 6 15 8.68629 15 12C15 12.0059 14.999 12.0117 14.999 12.0176C14.994 9.79152 13.777 7.85078 11.9727 6.81934C10.1946 7.86063 9.00005 9.79067 9 12C9.00005 14.2206 10.2079 16.1569 12.001 17.1943C11.118 17.7056 10.0937 18 9 18C5.68629 18 3 15.3137 3 12C3 8.68629 5.68629 6 9 6Z" fill="#F8F8F8"/>
<path d="M15 6C18.3137 6 21 8.68629 21 12C21 15.3137 18.3137 18 15 18C13.9057 18 12.8804 17.7061 11.9971 17.1943C13.791 16.1571 15 14.2212 15 12C15 9.79037 13.8048 7.86053 12.0264 6.81934C10.2224 7.85089 9.00502 9.79182 9.00001 12.0176C8.99999 12.0117 9.00001 12.0059 9.00001 12C9.00001 8.68629 11.6863 6 15 6Z" fill="#314343"/>
</svg>
